<svg width="20" height="20" viewBox="0 0 20 20" fill="#e07a5f" xmlns="http://www.w3.org/2000/svg">
<g clip-path="url(#clip0)">
<path d="M11.1049 10.0008L19.7712 1.33445C20.0763 1.02933 20.0763 0.534647 19.7712 0.22957C19.4661 -0.0755077 18.9714 -0.0755467 18.6663 0.22957L9.99999 8.89588L1.33372 0.22957C1.0286 -0.0755467 0.533915 -0.0755467 0.228837 0.22957C-0.0762401 0.534686 -0.0762792 1.02937 0.228837 1.33445L8.89511 10.0007L0.228837 18.667C-0.0762792 18.9721 -0.0762792 19.4668 0.228837 19.7719C0.381376 19.9245 0.581337 20.0007 0.781297 20.0007C0.981258 20.0007 1.18118 19.9245 1.33376 19.7719L9.99999 11.1056L18.6663 19.7719C18.8188 19.9245 19.0188 20.0007 19.2187 20.0007C19.4187 20.0007 19.6186 19.9245 19.7712 19.7719C20.0763 19.4668 20.0763 18.9721 19.7712 18.667L11.1049 10.0008Z" fill="url(#paint0_linear)"/>
</g>
<defs>
<linearGradient id="paint0_linear" x1="0.545455" y1="20.0007" x2="21.1998" y2="18.6736" gradientUnits="userSpaceOnUse">
<stop stop-color="#e07a5f"/>
<stop offset="1" stop-color="#e07a5f"/>
</linearGradient>
<clipPath id="clip0">
<rect width="20" height="20" fill="white"/>
</clipPath>
</defs>
</svg>
